# xmcd CD database file
#
# Track frame offsets:
#	150
#	22758
#	44847
#	61305
#	82208
#	110144
#	128543
#	147499
#	168477
#	188506
#
# Disc length: 2803 seconds
#
# Revision: 0
# Processed by: cddbd v1.4PL0 Copyright (c) Steve Scherf et al.
# Submitted via: CDex 1.50Beta6
#
DISCID=8b0af10a
DTITLE=Magic Slim &The Teardrops - Blue Magic
DYEAR=2002
DGENRE=Blues
TTITLE0=I'm A Bluesman
TTITLE1=Chickenheads
TTITLE2=Get Your Business Straight
TTITLE3=How Many More Years
TTITLE4=Evil Woman Blues
TTITLE5=You Got To Pay
TTITLE6=Lonely For Your Love
TTITLE7=Iwant To See You In The Evening
TTITLE8=I Started Loving You Again
TTITLE9=Goin'To Mississippi
EXTD=YEAR: 2002
EXTT0=
EXTT1=
EXTT2=
EXTT3=
EXTT4=
EXTT5=
EXTT6=
EXTT7=
EXTT8=
EXTT9=
PLAYORDER=
